<?xml version="1.0" standalone="no"?>
<!DOCTYPE svg PUBLIC "-//W3C//DTD SVG 20010904//EN"
 "http://www.w3.org/TR/2001/REC-SVG-20010904/DTD/svg10.dtd">
<svg version="1.0" xmlns="http://www.w3.org/2000/svg"
 width="1024.000000pt" height="1024.000000pt" viewBox="0 0 1024.000000 1024.000000"
 preserveAspectRatio="xMidYMid meet">
<metadata>
Created by potrace 1.11, written by Peter Selinger 2001-2013
</metadata>
<g transform="translate(0.000000,1024.000000) scale(0.100000,-0.100000)"
fill="#000000" stroke="none">
<path d="M1785 9171 c-16 -5 -55 -14 -85 -21 -72 -16 -181 -67 -261 -120 -66
-44 -219 -196 -219 -217 0 -7 -4 -13 -8 -13 -11 0 -87 -146 -102 -195 -6 -22
-14 -47 -17 -55 -8 -21 -10 -29 -22 -85 -12 -59 -10 -6662 2 -6710 31 -121 79
-232 139 -321 66 -99 210 -224 325 -282 44 -23 173 -73 173 -68 0 2 26 -3 58
-10 84 -20 6616 -19 6708 0 176 38 307 106 436 226 104 96 209 272 238 400 7
30 17 71 21 90 5 19 9 1520 9 3335 l0 3300 -25 95 c-44 165 -111 283 -227 402
-119 122 -280 211 -443 244 -51 10 -6660 15 -6700 5z m4821 -1754 c83 -31 134
-75 445 -386 261 -261 321 -326 343 -372 34 -73 45 -136 41 -232 -3 -64 -10
-92 -38 -151 -31 -65 -58 -96 -275 -314 -132 -133 -252 -246 -267 -252 -32
-12 -68 -7 -103 16 -43 28 -1006 996 -1030 1036 -45 73 -38 83 230 350 131
131 256 249 277 263 70 43 147 62 246 60 51 -1 108 -9 131 -18z m-1096 -866
c14 -7 97 -87 185 -176 88 -90 315 -321 504 -514 190 -192 351 -362 359 -376
8 -16 11 -38 7 -57 -10 -44 -2489 -2523 -2525 -2524 -14 -1 -70 -6 -125 -12
-55 -6 -129 -14 -165 -17 -36 -4 -76 -8 -90 -10 -14 -2 -54 -6 -90 -10 -36 -3
-81 -8 -100 -10 -19 -2 -57 -6 -85 -9 -126 -13 -182 -19 -210 -22 -160 -22
-251 -6 -310 53 -56 56 -70 141 -51 308 2 17 6 62 10 100 3 39 8 86 11 105 9
68 14 116 20 180 3 36 8 81 10 100 2 19 7 64 11 100 3 36 8 76 9 90 1 14 6 57
9 95 4 39 9 83 12 98 3 21 313 337 1240 1263 679 680 1247 1242 1262 1250 31
16 65 14 102 -5z"/>
</g>
</svg>
